<?xml version="1.0" encoding="utf-8"?>
<!-- Generator: Adobe Illustrator 18.0.0, SVG Export Plug-In . SVG Version: 6.00 Build 0)  -->
<!DOCTYPE svg PUBLIC "-//W3C//DTD SVG 1.1//EN" "http://www.w3.org/Graphics/SVG/1.1/DTD/svg11.dtd">
<svg version="1.1" id="Layer_4" xmlns="http://www.w3.org/2000/svg" xmlns:xlink="http://www.w3.org/1999/xlink" x="0px" y="0px"
	 viewBox="0 0 1089.7 827.8" enable-background="new 0 0 1089.7 827.8" xml:space="preserve" width="600" height="400">
<g id="Ear">
	<path id="Ear_Outline_x5F_Background" fill="#BF9A7F" d="M363.1,6.1l124-1c0,0,8.4,183.7,15.7,211.4c7.2,27.7,48.2,97.6,112,87.9
		s55.4-36.1,72.3-37.3c16.9-1.2,48.2-1.2,62.6-9.6c14.5-8.4,45.8-44.6,63.8-45.8c18.1-1.2,43.4,2.4,56.6,22.9
		c13.2,20.5,61.4,59,101.2,62.6c39.7,3.6,116.8,2.4,116.8,2.4s-25,37.9-25,47.5c0,9.6,8.7,75.3,4.5,78.9
		c-9.7,8.4-98.8,75.9-104.8,80.7c-6,4.8-196.3,136.1-196.3,136.1s-322.2,208.4-336,116.8c-2.4-16-4.2,7.8-9,24.7
		c-4.8,16.9-19.3,63.8-79.5,26.5c-40.8-25.3-89.7-68.6-113.8-124.1c-24.7-59.5-45-123.9-50.4-162.9c-6.1-43.6-18.2-146-18.2-146
		s-37.3-93.9-22.9-164.4c12.9-62.7,45.2-128.3,113.2-136.1c36.2-4.2,64.7,11.9,87.9,28.3c20.5,14.5,35.8,41.1,47.9,59.9
		c1.8,2.8,6,0.9,5.2-2.3C381.4,126.2,363.1,6.1,363.1,6.1z"/>
	<path id="Nerve_Bundle" fill="#E2E22B" d="M903,325.8l164-18l-8,17.3l-14.8,4.9c-24.6,8.2-47.7,20.3-68.5,35.9l-6,4.5L903,325.8z"
		/>
	<path id="Ear_Blue" fill="#3FCAEA" d="M391,188.3c2.2,3.3-0.7,7.6-4.5,6.8c-11-2.5-26.6-4-31.9,5.8c-8.4,15.7-16.9,56.6-4.8,75.9
		c12,19.3,24.1,47,25.3,60.2c1.2,13.2-4.8,15.7,8.4,21.7c13.2,6,28.9,2.4,30.1,14.5c1.2,12,48.2,69.9,95.1,56.6s131.5-38.8,152-42.4
		c20.5-3.6,5.5,90.9-13.8,92.1c-19.3,1.2-108.1,17.8-139.4,44.3c-31.3,26.5-45.3,38.7-66.2,42.2c-22.8,3.8-67.3,14.3-83,20.9
		c-5,2.1-19,10.8-20.6,23.6c-0.6,4.9,19.1,69.1,20.5,84.3c2.4,25.9-4.8,62.6-4.8,66.2c0,1.8,3.7,15.2,7.4,27.9
		c2.7,9.5-7.4,17.6-16.1,12.7c-30.1-17-82.3-54.1-111.9-119.1c-40.6-89-50.5-177.8-55.9-213c-4.8-31.9-10.2-83.1-10.2-87.9
		c0-4.8-21.7-67.4-24.1-120.4c-2.4-53,19.8-117.2,45.5-145c19.7-21.4,55.6-50.4,120.6-20.3s76,83.4,76,83.4L391,188.3z"/>
	<g id="Cohchlea">
		<path class="hoverable hoverable-SVG" data-label="step4" data-trackable="1" data-contentCode="cochlea" data-eventLabel="svgImageHoverArea" fill="#C14925" d="M941.5,335.3c-20.5-11.3-42.4-15.8-66.2-11.2c-15.8,3.1-29.4,13.6-44.4,35.2c-4.6,6.6-8.6,18.7-10.9,26.5
			c0.3,1.4,0.6,3,0.9,4.7c3.3,17.8,9.5,51,30.5,64.8c10.3,6.7,23.3,8.3,38.9,4.8c14.2-3.3,24.5-12.8,26.9-25c0.7-3.6,3.8-22-5.4-35
			c-5.2-7.4-13.2-12.6-24.7-14.2c-10.8-1.5-19.5,0.9-24.7,5.9c-6.2,5.9-7.2,15.3-6.9,20c0.7,8.6,6,16.2,12.3,17.7
			c10.5,2.5,18.4,0,21-6.7c1.1-2.7,0.9-5.5,0.1-7.3c-0.6-1.3-0.7-2.8,0-4.1l0.4-0.7c1.7-3.2,6.4-3.3,8-0.1
			c2.3,4.4,2.7,10.2,0.5,15.7c-3.5,9-13.8,17.1-32.3,12.6c-10.4-2.5-18.7-13.6-19.7-26.4c-0.6-7.9,1.6-20,9.9-27.8
			c7.5-7.1,18.3-9.7,32.2-7.8c14.3,2,25,7.8,31.9,17.5c11.2,15.8,8.2,36.5,7,42.5c-3.2,15.9-16.3,28.4-34.2,32.5
			c-6.1,1.4-12,2.1-17.5,2.1c-10.9,0-20.6-2.7-28.9-8.2c-24.2-15.9-31-51.1-34.6-70.5c-8.4-0.2-22.6,0.4-28.4,6.7
			c-6.3,6.8-11.3,16.1-8.9,37.2c2.6,22.1,40.5,71.6,105.1,68.2c49-2.6,67.5-22.9,76.2-35.1c10.8-15.1,20.5-32.2,21.5-60.6
			C978.2,376,966.4,349.1,941.5,335.3z"/>
		<path fill="#D36B53" d="M846.2,463.6c8.3,5.5,18,8.2,28.9,8.2c5.5,0,11.3-0.7,17.5-2.1c17.9-4.1,31-16.6,34.2-32.5
			c1.2-6,4.2-26.7-7-42.5c-6.9-9.6-17.6-15.5-31.9-17.5c-13.9-1.9-24.7,0.7-32.2,7.8c-8.3,7.9-10.5,19.9-9.9,27.8
			c1,12.8,9.3,23.9,19.7,26.4c18.5,4.5,28.8-3.6,32.3-12.6c2.1-5.5,1.8-11.3-0.5-15.7c-1.7-3.2-6.3-3.1-8,0.1l-0.4,0.7
			c-0.7,1.3-0.6,2.8,0,4.1c0.8,1.8,0.9,4.6-0.1,7.3c-2.6,6.7-10.4,9.2-21,6.7c-6.3-1.5-11.6-9.2-12.3-17.7c-0.4-4.7,0.6-14.1,6.9-20
			c5.2-5,13.9-7.4,24.7-5.9c11.5,1.6,19.5,6.8,24.7,14.2c9.2,12.9,6.1,31.4,5.4,35c-2.4,12.1-12.7,21.7-26.9,25
			c-15.5,3.6-28.6,2-38.9-4.8c-21.1-13.8-27.2-47-30.5-64.8c-0.3-1.7-0.6-3.2-0.9-4.7c-1.3,4.4-2,7.5-2,7.5s-2.6-0.3-6.5-0.4
			C815.2,412.5,821.9,447.7,846.2,463.6z"/>
		<path fill="#C14925" d="M853.1,334c-20.2-3.3-40.4-11.8-50.8-30.5c-9.1-16.4-6.4-40.6,12.3-49.2c19.2-8.8,39.9,4.8,47.8,22.3
			c9.5,21,4,44.8-4.6,65c-2.7,6.3,6.6,11.9,9.4,5.5c10.5-24.9,16.5-53.3,3.4-78.5c-10.8-20.8-36.2-34.1-59-24.7
			c-22.3,9.2-30.2,36.3-22,57.7c9.7,25.4,35.1,38.6,60.6,42.8C857.1,345.6,860,335.1,853.1,334L853.1,334z"/>
		<path fill="#C14925" d="M828.5,373.5c-20-8.9-41.3-18.2-55.3-35.8c-12.6-15.7-20.8-48.8,5-56.7c21-6.4,38.5,10.4,46.9,27.8
			c10,20.5,11.7,44,19.9,65.2c2.5,6.4,13,3.6,10.5-2.9c-10.4-26.7-11.2-57.5-29.1-81c-12.9-17-36.2-27.2-56.7-17.3
			c-22.6,11-22.7,40-12.7,59.8c13.2,26,40.8,39.1,66.1,50.4C829.4,385.7,834.9,376.4,828.5,373.5L828.5,373.5z"/>
	</g>
	<path fill="#B4C136" d="M752.4,410.4c-8.2-11.9-11.8-26.4-11.4-40.8c0.1-4.9-0.5-9.9-3.4-11.6c-6.3-3.6-15.7,0.9-20.9,10.1
		c-5.2,9.2-4.3,19.5,2,23.1c2.4,1.3,5.1,1.6,7.9,0.8c3.5-0.9,7.1,0.8,8.2,4.3c3.7,11.4,11.8,33.2,21.8,41.1l7.8-14
		C759.6,419.7,755.6,415.1,752.4,410.4z"/>
	<path id="Ossicles" class="hoverable hoverable-SVG" data-label="step3" data-trackable="1" data-contentCode="ossicles" data-eventLabel="svgImageHoverArea" fill="#C4D84E" d="M707.8,349.2c-7.6-1.4-15.5,1.6-19.8,8c-7.1,10.5-7.3,24.9,8,30.3c0.1,0,0.2,0.3,0.2,0.9
		c-12,6.8-27.2-0.8-27.2-0.8s-42.5,89.3-31.3,91.9c36.1,8.4,83.3-91.9,85.5-101.4C727,362.7,721.8,351.8,707.8,349.2z"/>
	<path id="Ear_Drum" class="hoverable hoverable-SVG" data-label="step2" data-trackable="1" data-contentCode="eardrum" data-eventLabel="svgImageHoverArea" fill="#97A328" d="M682.3,433.4c-7.1,26-26.1,47.1-42.5,47.1c-16.4,0-23.6-21.1-16.1-47.1
		c7.5-26,26.5-47.1,42.5-47.1C682.2,386.3,689.4,407.4,682.3,433.4z"/>
	<path id="Inner_Ear_Detail" fill="#189CB2" d="M253.5,183.7c3.4-9.1,13.9-13.3,22.6-9.1c6.3,3,12.9,7,16.7,11.5
		c9,10.8,19.6,28.6,3,53.6c-14.4,21.7-48.8,87.9-9.3,90c23.5,1.3,70.8,0.9,76.2,4.2c4.4,2.7,5.2,9.4,7.5,19.6
		c1.9,8.1-5,15.6-13.3,14.5c-13.6-2-32.5-3.3-46,1.4c-23.5,8.1-46.1,26.6-56.5,39.7c-5.6,7.1-24.5,54.2-8,89.4
		c20.2,43,38.5,53.3,66.5,61.4c28,8.1,46.4,19,36.4,23.2c-3.2,1.4-7.9,6.2-11.4,10.8c-11.2,14.5-27.8,17.5-44.8,10.6
		c-2.9-1.2-5.7-2.5-8.5-4c-19.9-10.8-60.2-45.2-75.6-93.9c-15.4-48.8-17.5-125.6-6.6-171.6C211,299.2,240.8,217.9,253.5,183.7z"/>
	<path id="Oval_Window" fill="#9FA51C" d="M818.4,450.6l-2-19.2c-0.3-3.2-2.6-5.8-5.7-6.5c-4.1-0.9-10.1-1.1-15.6,2.7
		c-0.4,0.3-0.7,0.5-1.1,0.8c-2.9,2.5-8,4.1-11.7,3.3c-7-1.4-12.9-4.5-17.9-8.4l-7.8,14c6.2,4.9,13.6,8.3,22,9.5
		c4.8,0.7,10.9,4.4,13.9,8.2c1.2,1.5,2.7,2.9,4.5,3.9c3.9,2.4,8.8,2.6,13,2.1C815.3,460.6,819,455.8,818.4,450.6z M802.5,454.2
		c-0.7-0.2-1.3-0.5-2-0.9c-5.8-3.5-6.9-12.2-3.9-17.4c0.7-1.2,1.5-2.1,2.5-2.8c0,0,0.1,0,0.1-0.1c4.5-3.1,10.8,0.1,11.3,5.6l0.9,8.3
		C811.8,451.8,807.1,455.8,802.5,454.2z"/>
</g>
<rect id="Highlight_Area" x="919.4" y="148.8" fill="white" width="109.7" height="37"/>
<rect id="Highlight_Area_1_" x="599.4" y="156.8" fill="white" width="101.7" height="37"/>
<rect id="Highlight_Area_2_" x="804.4" y="660.8" fill="white" width="143.9" height="37"/>
<rect id="Highlight_Area_3_" x="447.8" y="354.8" fill="white" width="106.1" height="34.6"/>
<g id="Oval_Window_1_">
	<path d="M813.6,679.5c0-5.1,3-8.3,6.9-8.3s6.9,3.2,6.9,8.3s-2.9,8.3-6.9,8.3S813.6,684.6,813.6,679.5z M825.4,679.5
		c0-4.2-2.1-6.6-5-6.6c-2.9,0-5,2.4-5,6.6c0,4.2,2.1,6.6,5,6.6C823.4,686,825.4,683.6,825.4,679.5z"/>
	<path d="M833,687.5l-4.2-11.4h2l3.2,9.2h0l3.2-9.2h1.9l-4.2,11.4H833z"/>
	<path d="M840,684.8c0-2.3,2-4,7.6-4.8v-0.5c0-1.4-0.8-2.1-2.2-2.1c-1.7,0-3,0.8-4.1,1.7l-1-1.2c1.3-1.2,3-2.1,5.3-2.1
		c2.7,0,3.8,1.4,3.8,3.8v5c0,1.4,0.1,2.2,0.3,2.8h-1.9c-0.2-0.5-0.3-0.9-0.3-1.6c-1.3,1.2-2.7,1.7-4.4,1.7
		C841.3,687.6,840,686.6,840,684.8z M847.6,684.5v-3.2c-4.3,0.7-5.8,1.7-5.8,3.2c0,1.1,0.7,1.7,1.9,1.7
		C845.3,686.2,846.6,685.5,847.6,684.5z"/>
	<path d="M852.8,687.5v-16h1.9v16H852.8z"/>
	<path d="M865.8,687.5l-4.3-16h1.9l2.4,9.3c0.4,1.4,0.7,2.8,0.9,3.9h0c0.2-1.1,0.5-2.5,0.9-3.9l2.2-9.3h1.9l2.3,9.3
		c0.3,1.4,0.7,2.6,0.9,3.8h0c0.3-1.3,0.5-2.4,0.9-3.8l2.3-9.4h1.8l-4.2,16h-1.7l-3.2-13.4h0l-3.3,13.4H865.8z"/>
	<path d="M882.4,673.6v-1.8h1.9v1.8H882.4z M882.5,687.5v-11.4h1.9v11.4H882.5z"/>
	<path d="M887.7,687.5v-11.4h1.9v1.7c1-1,2.4-1.9,4.3-1.9c2.2,0,3.4,1.3,3.4,3.4v8.2h-1.9v-7.8c0-1.5-0.6-2.2-2.1-2.2
		c-1.4,0-2.5,0.7-3.7,1.8v8.2H887.7z"/>
	<path d="M899.8,681.8c0-4,2.1-6,4.9-6c1.4,0,2.7,0.7,3.5,1.7v-6h1.9v13.2c0,1.4,0.1,2.2,0.3,2.8h-1.9c-0.1-0.4-0.3-1-0.3-1.6
		c-0.9,1-2.1,1.8-3.8,1.8C901.8,687.6,899.8,685.7,899.8,681.8z M908.2,684.3v-5.2c-1-1.1-2.1-1.7-3.3-1.7c-2,0-3.3,1.4-3.3,4.4
		c0,2.9,1.4,4.3,3.2,4.3C906.2,686.1,907.2,685.4,908.2,684.3z"/>
	<path d="M912.7,681.8c0-3.9,2.5-5.9,5.3-5.9c2.8,0,5.3,2,5.3,5.9c0,3.9-2.5,5.9-5.3,5.9S912.7,685.7,912.7,681.8z M921.4,681.8
		c0-2.4-1.1-4.3-3.4-4.3c-2.2,0-3.4,1.8-3.4,4.3c0,2.4,1.1,4.4,3.4,4.4C920.2,686.1,921.4,684.4,921.4,681.8z"/>
	<path d="M927.9,687.5l-3.5-11.4h1.9l1.5,5.4c0.4,1.4,0.6,2.3,1,3.8h0c0.4-1.6,0.6-2.4,1-3.8l1.4-5.3h1.6l1.5,5.4
		c0.4,1.4,0.6,2.2,1,3.7h0c0.4-1.5,0.6-2.3,1-3.7l1.6-5.5h1.7l-3.5,11.4h-1.7l-2.4-8.9h0l-2.4,8.9H927.9z"/>
</g>
<g id="Ossicles_1_">
	<path d="M610.6,175.5c0-5.1,3-8.3,6.9-8.3s6.9,3.2,6.9,8.3s-2.9,8.3-6.9,8.3S610.6,180.6,610.6,175.5z M622.4,175.5
		c0-4.2-2.1-6.6-5-6.6c-2.9,0-5,2.4-5,6.6c0,4.2,2.1,6.6,5,6.6C620.4,182,622.4,179.6,622.4,175.5z"/>
	<path d="M626.2,181.7l1.1-1.1c0.9,0.9,2,1.6,3.6,1.6c1.8,0,2.7-0.6,2.7-1.8c0-1.1-1-1.6-2.9-2c-2.4-0.6-4.1-1.2-4.1-3.4
		c0-1.7,1.5-3.1,4-3.1c2,0,3.3,0.6,4.4,1.6l-1,1.2c-0.9-0.8-2-1.4-3.3-1.4c-1.7,0-2.3,0.7-2.3,1.5c0,1.1,0.9,1.4,2.7,1.9
		c2.6,0.6,4.3,1.3,4.3,3.6c0,2.2-2,3.3-4.6,3.3C628.8,183.7,627.1,182.8,626.2,181.7z"/>
	<path d="M637,181.7l1.1-1.1c0.9,0.9,2,1.6,3.6,1.6c1.8,0,2.7-0.6,2.7-1.8c0-1.1-1-1.6-2.9-2c-2.4-0.6-4.1-1.2-4.1-3.4
		c0-1.7,1.5-3.1,4-3.1c2,0,3.3,0.6,4.4,1.6l-1,1.2c-0.9-0.8-2-1.4-3.3-1.4c-1.7,0-2.3,0.7-2.3,1.5c0,1.1,0.9,1.4,2.7,1.9
		c2.6,0.6,4.3,1.3,4.3,3.6c0,2.2-2,3.3-4.6,3.3C639.6,183.7,637.9,182.8,637,181.7z"/>
	<path d="M649,169.6v-1.8h1.9v1.8H649z M649,183.5v-11.4h1.9v11.4H649z"/>
	<path d="M653.6,177.8c0-4.2,2.7-5.9,5.2-5.9c2.6,0,3.8,1.5,4.5,3.2l-1.6,0.6c-0.6-1.5-1.4-2.3-2.9-2.3c-1.6,0-3.3,1.1-3.3,4.4
		c0,2.8,1.3,4.4,3.3,4.4c1.4,0,2.3-0.6,3.1-2.3l1.5,0.6c-0.9,1.9-2.2,3.2-4.7,3.2C656.1,183.7,653.6,181.7,653.6,177.8z"/>
	<path d="M666,183.5v-16h1.9v16H666z"/>
	<path d="M670.6,177.8c0-4.1,2.8-5.9,5.2-5.9c2.7,0,4.8,1.9,4.8,6v0.4h-8.1c0.1,2.6,1.6,4,3.4,4c1.6,0,2.6-0.7,3.4-1.9l1.1,1
		c-1.1,1.5-2.5,2.4-4.6,2.4C673,183.7,670.6,181.7,670.6,177.8z M678.7,176.8c-0.2-2-1.1-3.4-3-3.4c-1.5,0-3,1.1-3.2,3.4H678.7z"/>
	<path d="M682.1,181.7l1.1-1.1c0.9,0.9,2,1.6,3.6,1.6c1.8,0,2.7-0.6,2.7-1.8c0-1.1-1-1.6-2.9-2c-2.4-0.6-4.1-1.2-4.1-3.4
		c0-1.7,1.5-3.1,4-3.1c2,0,3.3,0.6,4.4,1.6l-1,1.2c-0.9-0.8-2-1.4-3.3-1.4c-1.7,0-2.3,0.7-2.3,1.5c0,1.1,0.9,1.4,2.7,1.9
		c2.6,0.6,4.3,1.3,4.3,3.6c0,2.2-2,3.3-4.6,3.3C684.7,183.7,683,182.8,682.1,181.7z"/>
</g>
<g id="Cochlea">
	<path d="M933.7,167.4c0-5.2,2.9-8.6,7.1-8.6c3.6,0,5.4,2.1,6.2,5.1l-1.9,0.5c-0.7-2.5-1.9-3.8-4.3-3.8c-3.1,0-5.1,2.6-5.1,6.8
		c0,4.4,2,7,5.1,7c2.4,0,3.8-1.3,4.5-4.1l1.9,0.4c-0.8,3.3-2.9,5.4-6.4,5.4C936.6,176.2,933.7,172.9,933.7,167.4z"/>
	<path d="M949.2,169.9c0-4.1,2.6-6.2,5.6-6.2c2.9,0,5.5,2.1,5.5,6.2c0,4.1-2.6,6.2-5.5,6.2C951.9,176.1,949.2,174,949.2,169.9z
		 M958.4,169.9c0-2.5-1.2-4.5-3.6-4.5c-2.3,0-3.6,1.9-3.6,4.5c0,2.5,1.2,4.6,3.6,4.6C957.1,174.5,958.4,172.6,958.4,169.9z"/>
	<path d="M962.4,169.9c0-4.4,2.8-6.2,5.5-6.2c2.7,0,4,1.6,4.7,3.3l-1.7,0.7c-0.6-1.5-1.5-2.4-3.1-2.4c-1.7,0-3.5,1.2-3.5,4.6
		c0,2.9,1.4,4.6,3.4,4.6c1.5,0,2.4-0.7,3.2-2.4l1.6,0.6c-0.9,2-2.3,3.4-4.9,3.4C965,176.1,962.4,174,962.4,169.9z"/>
	<path d="M975.3,175.9v-16.7h2v6.6c1-1,2.5-2,4.5-2c2.3,0,3.5,1.3,3.5,3.6v8.6h-1.9v-8.2c0-1.6-0.7-2.3-2.2-2.3
		c-1.4,0-2.6,0.7-3.9,1.9v8.6H975.3z"/>
	<path d="M988.7,175.9v-16.7h1.9v16.7H988.7z"/>
	<path d="M993.5,169.9c0-4.3,2.9-6.2,5.4-6.2c2.8,0,5,2,5,6.3v0.4h-8.4c0.1,2.7,1.6,4.1,3.6,4.1c1.7,0,2.7-0.7,3.6-1.9l1.1,1
		c-1.1,1.6-2.6,2.5-4.9,2.5C996.1,176.1,993.5,174.1,993.5,169.9z M1002.1,168.9c-0.2-2.1-1.2-3.6-3.1-3.6c-1.6,0-3.1,1.1-3.4,3.6
		H1002.1z"/>
	<path d="M1005.8,173c0-2.4,2.1-4.1,8-5v-0.5c0-1.5-0.8-2.2-2.3-2.2c-1.8,0-3.1,0.8-4.3,1.8l-1-1.2c1.4-1.3,3.2-2.2,5.5-2.2
		c2.9,0,4,1.5,4,4v5.3c0,1.4,0.1,2.3,0.3,2.9h-2c-0.2-0.5-0.3-1-0.3-1.7c-1.3,1.2-2.8,1.8-4.6,1.8
		C1007.1,176.1,1005.8,175,1005.8,173z M1013.8,172.8v-3.3c-4.5,0.7-6.1,1.8-6.1,3.3c0,1.2,0.8,1.8,2,1.8
		C1011.3,174.5,1012.7,173.9,1013.8,172.8z"/>
</g>
<g id="Eardrum">
	<path d="M458,380v-16.1h9.9v1.8h-8v5h5.9v1.7h-5.9v5.9h8.4v1.7H458z"/>
	<path d="M470.1,377.3c0-2.3,2-4,7.7-4.8v-0.5c0-1.4-0.8-2.1-2.2-2.1c-1.7,0-3,0.8-4.2,1.7l-1-1.2c1.3-1.2,3.1-2.1,5.3-2.1
		c2.7,0,3.8,1.4,3.8,3.8v5.1c0,1.4,0.1,2.2,0.3,2.8H478c-0.2-0.5-0.3-0.9-0.3-1.6c-1.3,1.2-2.7,1.8-4.5,1.8
		C471.3,380.2,470.1,379.1,470.1,377.3z M477.8,377v-3.2c-4.4,0.7-5.8,1.8-5.8,3.2c0,1.1,0.7,1.7,1.9,1.7
		C475.4,378.7,476.7,378,477.8,377z"/>
	<path d="M482.8,380v-11.5h1.9v2.1h0c0.9-1.3,2.2-2.4,4.5-2.4h0.2l-0.1,1.7c-0.1,0-0.5,0-0.5,0c-1.8,0-3.2,1-4.1,2.6v7.4H482.8z"/>
	<path d="M490.3,374.2c0-4,2.1-6,4.9-6c1.4,0,2.7,0.7,3.6,1.7v-6.1h1.9v13.3c0,1.4,0.1,2.2,0.3,2.8h-2c-0.1-0.4-0.3-1-0.3-1.6
		c-0.9,1-2.1,1.8-3.8,1.8C492.4,380.2,490.3,378.3,490.3,374.2z M498.8,376.8v-5.3c-1-1.1-2.1-1.7-3.3-1.7c-2,0-3.3,1.4-3.3,4.5
		c0,2.9,1.4,4.3,3.3,4.3C496.8,378.6,497.8,377.9,498.8,376.8z"/>
	<path d="M504,380v-11.5h1.9v2.1h0c0.9-1.3,2.2-2.4,4.5-2.4h0.2l-0.1,1.7c-0.1,0-0.5,0-0.5,0c-1.8,0-3.2,1-4.1,2.6v7.4H504z"/>
	<path d="M512.7,376.8v-8.3h1.9v7.9c0,1.5,0.7,2.2,2.1,2.2c1.4,0,2.5-0.7,3.7-1.9v-8.3h1.9V380h-1.9v-1.7c-1,1-2.4,1.9-4.3,1.9
		C513.9,380.2,512.7,379,512.7,376.8z"/>
	<path d="M525.6,380v-11.5h1.9v1.7c1.1-1.1,2.4-2,4.1-2c1.9,0,2.8,0.8,3.2,2c1.1-1.1,2.5-2,4.3-2c2.4,0,3.3,1.4,3.3,3.4v8.3h-1.9
		v-7.9c0-1.5-0.5-2.2-2-2.2c-1.3,0-2.4,0.7-3.6,1.9v8.3h-1.9v-7.9c0-1.5-0.5-2.2-2-2.2c-1.3,0-2.4,0.7-3.6,1.9v8.3H525.6z"/>
</g>
<g id="Arrow">
	<g>
		<path d="M670.1,395.4c0,8-6.5,14.5-14.5,14.5c-8,0-14.5-6.5-14.5-14.5c0-8,6.5-14.5,14.5-14.5
			C663.6,380.8,670.1,387.3,670.1,395.4z M642.7,395.4c0,7.1,5.8,12.9,12.9,12.9c7.1,0,12.9-5.8,12.9-12.9c0-7.1-5.8-12.9-12.9-12.9
			C648.4,382.4,642.7,388.2,642.7,395.4z"/>
	</g>
	<g>
		<rect x="455.4" y="393.8" width="187" height="2"/>
	</g>
</g>
<g id="Arrow_1_">
	<g>
		<path d="M704.7,382.7c-8,0-14.5-6.5-14.5-14.5s6.5-14.5,14.5-14.5s14.5,6.5,14.5,14.5S712.8,382.7,704.7,382.7z M704.7,355.3
			c-7.1,0-12.9,5.8-12.9,12.9c0,7.1,5.8,12.9,12.9,12.9c7.1,0,12.9-5.8,12.9-12.9C717.7,361.1,711.9,355.3,704.7,355.3z"/>
	</g>
	<g>
		<rect x="704.4" y="167.8" width="2" height="187"/>
	</g>
</g>
<g id="Arrow_2_">
	<g>
		<path d="M793.7,443.8c8,0,14.5,6.5,14.5,14.5c0,8-6.5,14.5-14.5,14.5c-8,0-14.5-6.5-14.5-14.5
			C779.2,450.3,785.7,443.8,793.7,443.8z M793.7,471.2c7.1,0,12.9-5.8,12.9-12.9c0-7.1-5.8-12.9-12.9-12.9
			c-7.1,0-12.9,5.8-12.9,12.9C780.8,465.4,786.6,471.2,793.7,471.2z"/>
	</g>
	<g>
		<rect x="792.4" y="471.8" width="2" height="227"/>
	</g>
</g>
<g id="Arrow_3_" display="none">
	<g display="inline">
		<path d="M913.7,371.8c-8,0-14.5-6.5-14.5-14.5s6.5-14.5,14.5-14.5s14.5,6.5,14.5,14.5S921.8,371.8,913.7,371.8z M913.7,344.3
			c-7.1,0-12.9,5.8-12.9,12.9c0,7.1,5.8,12.9,12.9,12.9c7.1,0,12.9-5.8,12.9-12.9C926.7,350.1,920.9,344.3,913.7,344.3z"/>
	</g>
	<g display="inline">
		<rect x="913.4" y="156.8" width="2" height="187"/>
	</g>
</g>
<path id="transparent" class="hoverable hoverable-SVG" data-label="step1" data-trackable="1" data-contentCode="sound" data-eventLabel="svgImageHoverArea" fill="#DBD865" d="M633.6,399.5c0,0-19.4,17.8-19.4,40.2c0,23.5,7.1,37,7.1,37
	s-48.4,8.5-79.4,18.5c-14.5,4.7-37,18-47.5,28.5c-5.5,5.5-24.3,25.9-49.5,33.5c-10,3-42.4,12.9-71.5,18c-23,4-60,51.5-60,51.5
	s-130,79-299.5,172l0-80v-641l288.5,149c0,0,58,62,70,113c3.4,14.2,1,24.8,9,26c27,4,30.2,15,39.7,28.1
	c11.1,15.5,21.6,30.4,35.3,35.9c20,8,26.9,23,104.5-5.5C594.9,411.8,633.6,399.5,633.6,399.5z"/>
<path id="Sound_Highlight" display="none" opacity="0.52" fill="#DBD865" d="M634.1,399.3c0,0-19.9,18-19.9,40.5
	c0,23.5,7.1,37,7.1,37s-48.4,8.5-79.4,18.5c-14.5,4.7-37,18-47.5,28.5c-5.5,5.5-24,27-49.5,33.5c-4.7,1.2-47.2,9.8-63.9,13.2
	c-4.8,1-9.4,2.2-14,3.8c-10.9,3.8-19.3,5.4-31.6,14.5c-9.5,7-18.1,26.7-31,36c-9,6.5-83.3,17.7-83.3,17.7s-27-86-34-143.3
	c-11.3-93.3-22-149.7-24.2-162.3c-0.3-1.6-0.7-3.1-1.2-4.6c-26.8-81.6-1.3-145.1-1.3-145.1s140,38.4,142,39.7c35,22,68,89,70,113
	c1.2,14.6,1,24.8,9,26c27,4,30.2,15,39.7,28.1c11.1,15.5,21.6,30.4,35.3,35.9c20,8,26.9,23,104.5-5.5
	C594.9,411.8,634.1,399.3,634.1,399.3z"/>
<g id="Soundwaves">
	<path fill="#148793" d="M277.4,433.3c-12.1-29.4-36.2-52-66.4-62c-2.4-0.8-4.9-0.7-7.4,0.3c-4.2,1.7-6.8,5.7-6.6,10.2
		c0.2,4.6,3.1,8.4,7.4,9.9c24.1,8,43.5,26.1,53.1,49.7c8.4,20.6,8.8,43.3,0.9,64c-7.8,20.6-23.1,37.4-42.9,47.2
		c-5,2.5-7.3,8.5-5.2,13.7c1.8,4.4,6.3,7.1,11.1,6.6c1.3-0.1,2.5-0.5,3.6-1c24.7-12.2,43.7-33.1,53.5-58.8
		C288.3,487.3,287.9,459,277.4,433.3z"/>
	<path fill="#148793" d="M293.9,381.8c-2.1-0.6-4.4-0.5-6.6,0.5c-3.7,1.7-5.9,5.3-5.6,9.3c0.3,4.1,3,7.4,6.9,8.6
		c20,5.8,36.5,20.1,45.1,39.2c7.5,16.6,8.5,35.3,2.7,52.5c-5.8,17.2-17.8,31.4-33.8,40c-4.4,2.4-6.2,7.8-4.1,12.4
		c1.7,3.7,5.6,6,9.7,5.6c1.3-0.1,2.5-0.5,3.6-1.1c20.3-10.9,35.5-29,42.8-50.8c7.4-21.8,6.1-45.5-3.4-66.5
		C340.3,407.3,319.4,389.2,293.9,381.8z"/>
	<path fill="#148793" d="M415.6,435.2c-7.9-19.1-23.7-33.8-43.4-40.1c-1.8-0.6-3.8-0.5-5.7,0.3c-3.2,1.3-5.2,4.4-5.1,7.9
		c0.1,3.5,2.4,6.5,5.7,7.6c15,4.9,27.1,16.1,33.2,30.8c10.9,26.2-0.5,56.6-25.8,69.3c-3.9,1.9-5.6,6.5-3.9,10.5
		c1.4,3.3,4.7,5.4,8.4,5l0,0c1-0.1,2-0.4,2.9-0.8c16.1-8,28.4-21.7,34.6-38.4C422.9,470.3,422.5,451.9,415.6,435.2z"/>
</g>
</svg>
