<?xml version="1.0" encoding="utf-8"?>
<!-- Generator: Adobe Illustrator 18.0.0, SVG Export Plug-In . SVG Version: 6.00 Build 0)  -->
<!DOCTYPE svg PUBLIC "-//W3C//DTD SVG 1.1//EN" "http://www.w3.org/Graphics/SVG/1.1/DTD/svg11.dtd">
<svg version="1.1" id="Layer_1" xmlns="http://www.w3.org/2000/svg" xmlns:xlink="http://www.w3.org/1999/xlink" x="0px" y="0px"
	 viewBox="0 0 1468.2 372.5" enable-background="new 0 0 1468.2 372.5" xml:space="preserve" height="200" width="700">
<g id="Sensory_Memory">
	<path id="Shape" fill="#84D0A5" class="answerable_SVG" data-label="Sensory Memory" d="M334.1,296.5H66.4C29.7,296.5,0,266.8,0,230.1v-36.7C0,156.8,29.7,127,66.4,127h267.7
		c36.7,0,66.4,29.7,66.4,66.4v36.7C400.5,266.8,370.7,296.5,334.1,296.5z"/>
	<g>
		<path d="M126.6,186.6l6.1-1.1c0.8,4.1,2,6.5,4.9,6.5c2.4,0,3.4-1.6,3.4-3.5c0-6.4-13.5-9.1-13.5-19.3c0-5.9,3.9-9.5,10-9.5
			c6.2,0,8.8,4.1,10.2,10.4l-6.2,1.5c-0.8-3.9-2-5.9-4.2-5.9c-1.8,0-2.8,1.2-2.8,3c0,6.3,13.5,9.1,13.5,19.3c0,5.8-4.1,9.7-10.2,9.7
			C130.3,197.9,127.9,193,126.6,186.6z"/>
		<path d="M150,184.1c0-9.7,4.1-13.8,9.6-13.8c6.5,0,9.1,5.7,9.1,13.9v2.1h-12.3c0,3.9,1.2,6.4,3.5,6.4c2,0,3-1.6,3.8-4l5.1,1.8
			c-1.5,4.6-4.5,7.2-9,7.2C153.9,197.8,150,193.5,150,184.1z M162.5,182c-0.1-4.6-1-6.5-2.9-6.5c-1.8,0-3.1,1.6-3.2,6.5H162.5z"/>
		<path d="M171.6,170.7h6.7v3.3c1.2-1.6,3.8-3.8,6.8-3.8c3.1,0,5.1,1.5,5.1,6.3v20.8h-6.7v-18.5c0-1.7-0.5-2.6-1.7-2.6
			c-1.2,0-2.6,1-3.5,1.8v19.3h-6.7V170.7z"/>
		<path d="M192.2,191.2l5-2.3c1.1,2.6,2.8,4,4.7,4c1.5,0,2.6-0.8,2.6-2.2c0-4.1-11.2-4-11.2-12.9c0-5.3,4.7-7.5,8.4-7.5
			c4.4,0,7.2,1.9,9,6.2l-5,2.3c-0.9-2.2-2.2-3.3-3.8-3.3c-1.2,0-2.1,0.8-2.1,2c0,4.2,11.2,4.2,11.2,13c0,4.7-3.5,7.5-8.9,7.5
			C196.8,197.8,193.9,195.2,192.2,191.2z"/>
		<path d="M212.4,184c0-9.6,4.1-13.7,9.9-13.7c5.7,0,9.9,4.1,9.9,13.7c0,9.5-4.2,13.7-9.9,13.7C216.6,197.7,212.4,193.5,212.4,184z
			 M225.4,184c0-5.9-0.7-8.4-3.1-8.4c-2.3,0-3.2,2.2-3.2,8.4c0,5.8,0.8,8.8,3.2,8.8C224.5,192.7,225.4,190.3,225.4,184z"/>
		<path d="M235,170.7h6.7v4.3h0c1.1-2.4,3-4.7,6.1-4.7c0.2,0,0.6,0,0.6,0l-0.1,6.4c-0.2,0-0.8-0.1-1.1-0.1c-2.5,0-4.6,1.2-5.5,2.5
			v18.3H235V170.7z"/>
		<path d="M248.9,206.8l1.2-5.4c0.6,0.2,1.5,0.4,2.7,0.4c1.8,0,2.4-0.8,2.9-2.7l0.5-1.8l-6.7-26.6h6.9l2.2,12.4c0.4,2.2,0.6,3.5,1,7
			h0.2c0.4-3.2,0.6-4.8,1-6.9l2.4-12.4h6.4l-7.6,29.1c-1.4,5.2-3.2,7.7-8.1,7.7C251.5,207.5,249.9,207.1,248.9,206.8z"/>
		<path d="M128,217.4h8.5l4.8,26.2h0.2l4.8-26.2h8.5v37h-6.3v-26.2h-0.2c-0.3,3.6-1,6.3-1.6,9.5l-3.2,16.7h-5.2l-3.2-17.2
			c-0.6-3-1.2-6.3-1.6-9h-0.1v26.2H128V217.4z"/>
		<path d="M158.1,241.1c0-9.7,4.1-13.8,9.6-13.8c6.5,0,9.1,5.7,9.1,13.9v2.1h-12.3c0,3.9,1.2,6.4,3.5,6.4c2,0,3-1.6,3.8-4l5.1,1.8
			c-1.5,4.6-4.5,7.2-9,7.2C162,254.8,158.1,250.5,158.1,241.1z M170.6,239c-0.1-4.6-1-6.5-2.9-6.5c-1.8,0-3.1,1.6-3.2,6.5H170.6z"/>
		<path d="M179.7,227.7h6.7v3.3c1.2-1.6,3.8-3.8,6.5-3.8c2.8,0,4.3,1.1,4.9,3.8c1.4-1.8,4-3.8,6.7-3.8c3.5,0,5.2,1.8,5.2,6.4v20.7
			h-6.7v-18.5c0-1.7-0.3-2.6-1.7-2.6c-1.1,0-2.2,0.9-3.2,1.8v19.3h-6.7v-18.5c0-1.7-0.3-2.6-1.6-2.6c-1.2,0-2.3,0.9-3.3,1.8v19.3
			h-6.7V227.7z"/>
		<path d="M212.3,241c0-9.6,4.1-13.7,9.9-13.7c5.7,0,9.9,4.1,9.9,13.7c0,9.5-4.2,13.7-9.9,13.7C216.5,254.7,212.3,250.5,212.3,241z
			 M225.3,241c0-5.9-0.7-8.4-3.1-8.4c-2.3,0-3.2,2.2-3.2,8.4c0,5.8,0.8,8.8,3.2,8.8C224.4,249.7,225.3,247.3,225.3,241z"/>
		<path d="M234.9,227.7h6.7v4.3h0c1.1-2.4,3-4.7,6.1-4.7c0.2,0,0.6,0,0.6,0l-0.1,6.4c-0.2,0-0.8-0.1-1.1-0.1c-2.5,0-4.6,1.2-5.5,2.5
			v18.3h-6.7V227.7z"/>
		<path d="M248.8,263.8l1.2-5.4c0.6,0.2,1.5,0.4,2.7,0.4c1.8,0,2.4-0.8,2.9-2.7l0.5-1.8l-6.7-26.6h6.9l2.2,12.4c0.4,2.2,0.6,3.5,1,7
			h0.2c0.4-3.2,0.6-4.8,1-6.9l2.4-12.4h6.4l-7.6,29.1c-1.4,5.2-3.2,7.7-8.1,7.7C251.4,264.5,249.8,264.1,248.8,263.8z"/>
	</g>
</g>
<g id="Short_Term">
	<path id="Shape_1_"  class="answerable_SVG" data-label="Short-Term Memory" fill="#84D0A5" d="M865,296H597.4c-36.7,0-66.4-29.7-66.4-66.4V193c0-36.7,29.7-66.4,66.4-66.4H865
		c36.7,0,66.4,29.7,66.4,66.4v36.7C931.5,266.3,901.7,296,865,296z"/>
	<g>
		<path d="M638.4,186l5.9-1.1c0.8,3.9,1.9,6.3,4.7,6.3c2.3,0,3.2-1.6,3.2-3.3c0-6.1-13-8.7-13-18.5c0-5.6,3.7-9.1,9.6-9.1
			c6,0,8.4,3.9,9.8,9.9l-6,1.5c-0.8-3.7-1.9-5.6-4.1-5.6c-1.7,0-2.7,1.1-2.7,2.9c0,6,13,8.7,13,18.5c0,5.5-3.9,9.3-9.8,9.3
			C641.9,196.9,639.6,192.2,638.4,186z"/>
		<path d="M661.9,160.9h6.4V174c1.2-1.6,3.6-3.6,6.5-3.6c3,0,4.9,1.4,4.9,6v20h-6.4v-17.8c0-1.6-0.4-2.4-1.6-2.4
			c-1.2,0-2.5,1-3.4,1.7v18.5h-6.4V160.9z"/>
		<path d="M682.3,183.6c0-9.2,3.9-13.2,9.5-13.2c5.4,0,9.5,3.9,9.5,13.2c0,9.1-4,13.2-9.5,13.2C686.3,196.7,682.3,192.7,682.3,183.6
			z M694.8,183.5c0-5.6-0.7-8.1-3-8.1c-2.2,0-3.1,2.1-3.1,8.1c0,5.6,0.8,8.4,3.1,8.4C693.9,191.9,694.8,189.6,694.8,183.5z"/>
		<path d="M704,170.8h6.4v4.1h0c1-2.3,2.9-4.5,5.8-4.5c0.2,0,0.6,0,0.6,0l-0.1,6.1c-0.2,0-0.8-0.1-1.1-0.1c-2.4,0-4.4,1.2-5.3,2.4
			v17.5H704V170.8z"/>
		<path d="M720.6,190.7v-15h-2.8v-4.9h2.8V162h6.4v8.8h4.4v4.9h-4.4v13.1c0,2.5,0.6,3,2.4,3c0.7,0,1.6-0.1,1.8-0.2v4.7
			c-0.4,0.1-2.2,0.3-3.8,0.3C722.6,196.6,720.6,195.1,720.6,190.7z"/>
		<path d="M732.5,178.8h10.8v5.5h-10.8V178.8z"/>
		<path d="M748.1,166.6h-6.3v-5.8h19.5v5.8h-6.4v29.8h-6.8V166.6z"/>
		<path d="M758.8,183.6c0-9.3,3.9-13.2,9.2-13.2c6.2,0,8.7,5.5,8.7,13.3v2.1h-11.8c0,3.7,1.1,6.1,3.4,6.1c1.9,0,2.9-1.5,3.6-3.8
			l4.9,1.7c-1.4,4.4-4.3,6.9-8.6,6.9C762.6,196.8,758.8,192.7,758.8,183.6z M770.8,181.6c0-4.4-1-6.2-2.8-6.2c-1.7,0-2.9,1.5-3,6.2
			H770.8z"/>
		<path d="M779.5,170.8h6.4v4.1h0c1-2.3,2.9-4.5,5.8-4.5c0.2,0,0.6,0,0.6,0l-0.1,6.1c-0.2,0-0.8-0.1-1.1-0.1c-2.4,0-4.4,1.2-5.3,2.4
			v17.5h-6.4V170.8z"/>
		<path d="M794.6,170.8h6.4v3.2c1.2-1.6,3.6-3.6,6.2-3.6c2.7,0,4.2,1.1,4.7,3.6c1.3-1.7,3.8-3.6,6.4-3.6c3.3,0,4.9,1.7,4.9,6.1v19.8
			h-6.4v-17.8c0-1.6-0.3-2.4-1.6-2.4c-1.1,0-2.1,0.8-3.1,1.7v18.5h-6.4v-17.8c0-1.6-0.3-2.5-1.5-2.5c-1.2,0-2.2,0.9-3.2,1.7v18.5
			h-6.4V170.8z"/>
		<path d="M574.6,240.8c0-9.2,3.5-17,8.4-23l4.7,2.5c-3.6,5.9-6.4,13-6.4,20.5s2.7,15.4,6.5,20.5l-4.7,2.5
			C578.1,258,574.6,250,574.6,240.8z"/>
		<path d="M589.2,218.5h6.5l2,14c0.5,3.3,0.9,5.9,1.2,10.4h0.1c0.5-4.3,0.9-7.1,1.4-10.4l2.1-14h5.5l2.1,13.9
			c0.5,3.5,1,6.2,1.4,10.5h0.1c0.3-4.2,0.7-7,1.2-10.3l2.1-14.1h5.8l-6.2,35.6h-5.8l-3.7-23.9H605l-3.7,23.9h-5.8L589.2,218.5z"/>
		<path d="M620.3,241.2c0-9.2,3.9-13.2,9.5-13.2c5.4,0,9.5,3.9,9.5,13.2c0,9.1-4,13.2-9.5,13.2C624.3,254.3,620.3,250.3,620.3,241.2
			z M632.7,241.1c0-5.6-0.7-8.1-3-8.1c-2.2,0-3.1,2.1-3.1,8.1c0,5.6,0.8,8.4,3.1,8.4C631.9,249.5,632.7,247.2,632.7,241.1z"/>
		<path d="M641.9,228.4h6.4v4.1h0c1-2.3,2.9-4.5,5.8-4.5c0.2,0,0.6,0,0.6,0l-0.1,6.1c-0.2,0-0.8-0.1-1.1-0.1c-2.4,0-4.4,1.2-5.3,2.4
			V254h-6.4V228.4z"/>
		<path d="M657.1,218.5h6.2v21c0.6-2,1.2-3.4,1.9-4.8l2.8-6.2h6.1l-5,9.5l5.6,16.1h-6.4l-3.4-10.1l-1.7,3.2v7h-6.2V218.5z"/>
		<path d="M677.2,219.3h6.5v6.1h-6.5V219.3z M677.2,228.4h6.4V254h-6.4V228.4z"/>
		<path d="M687.6,228.4h6.4v3.2c1.2-1.6,3.6-3.6,6.5-3.6c3,0,4.9,1.4,4.9,6v20H699v-17.8c0-1.6-0.4-2.4-1.6-2.4
			c-1.2,0-2.5,1-3.4,1.7V254h-6.4V228.4z"/>
		<path d="M727.5,227.8v6c-0.4,0-1.5,0-2.5,0.2c0.3,1,0.5,2,0.5,3.3c0,6.1-3.7,9.2-8.6,9.2c-0.9,0-1.8-0.1-2.5-0.3
			c-0.3,0.3-0.6,0.7-0.6,1.1c0,0.8,0.4,1.1,1.8,1.3l3.2,0.3c6.1,0.5,8.3,2.6,8.3,6.9c0,4.7-4.4,7.8-11.1,7.8c-6,0-8.9-2.1-8.9-5.6
			c0-2.3,1.3-4.2,3.5-5.3c-1.3-0.8-2-1.9-2-3.4c0-1.5,1.1-3.4,2.8-4.7c-2-1.6-3.2-4.2-3.2-7.4c0-6,3.7-9.3,8.6-9.3
			c2.5,0,4.6,0.8,6.1,2.4C724.2,229.1,726.1,228.1,727.5,227.8z M713,256.7c0,2.2,1.3,3,4,3c2.6,0,4.2-1.2,4.2-3.1
			c0-1.6-0.8-2.4-3.6-2.7l-3.2-0.3C713.4,254.6,713,255.7,713,256.7z M719.5,237.4c0-3.3-0.8-4.7-2.5-4.7s-2.5,1.5-2.5,4.7
			c0,3.2,0.8,4.8,2.5,4.8C718.6,242.2,719.5,240.6,719.5,237.4z"/>
		<path d="M738.9,218.5h8.1l4.6,25.2h0.2l4.6-25.2h8.2V254h-6v-25.1h-0.1c-0.3,3.5-1,6-1.5,9.1l-3,16h-4.9l-3.1-16.5
			c-0.6-2.8-1.2-6-1.5-8.6h-0.1V254h-5.3V218.5z"/>
		<path d="M767.7,241.2c0-9.3,3.9-13.2,9.2-13.2c6.2,0,8.7,5.5,8.7,13.3v2.1h-11.8c0,3.7,1.1,6.1,3.4,6.1c1.9,0,2.9-1.5,3.6-3.8
			l4.9,1.7c-1.4,4.4-4.3,6.9-8.6,6.9C771.5,254.4,767.7,250.3,767.7,241.2z M779.7,239.2c0-4.4-1-6.2-2.8-6.2c-1.7,0-2.9,1.5-3,6.2
			H779.7z"/>
		<path d="M788.5,228.4h6.4v3.2c1.2-1.6,3.6-3.6,6.2-3.6c2.7,0,4.2,1.1,4.7,3.6c1.3-1.7,3.8-3.6,6.4-3.6c3.3,0,4.9,1.7,4.9,6.1V254
			h-6.4v-17.8c0-1.6-0.3-2.4-1.6-2.4c-1.1,0-2.1,0.8-3.1,1.7V254h-6.4v-17.8c0-1.6-0.3-2.5-1.5-2.5c-1.2,0-2.2,0.9-3.2,1.7V254h-6.4
			V228.4z"/>
		<path d="M819.8,241.2c0-9.2,3.9-13.2,9.5-13.2c5.4,0,9.5,3.9,9.5,13.2c0,9.1-4,13.2-9.5,13.2C823.8,254.3,819.8,250.3,819.8,241.2
			z M832.2,241.1c0-5.6-0.7-8.1-3-8.1c-2.2,0-3.1,2.1-3.1,8.1c0,5.6,0.8,8.4,3.1,8.4C831.4,249.5,832.2,247.2,832.2,241.1z"/>
		<path d="M841.5,228.4h6.4v4.1h0c1-2.3,2.9-4.5,5.8-4.5c0.2,0,0.6,0,0.6,0l-0.1,6.1c-0.2,0-0.8-0.1-1.1-0.1c-2.4,0-4.4,1.2-5.3,2.4
			V254h-6.4V228.4z"/>
		<path d="M854.8,263l1.1-5.2c0.6,0.1,1.5,0.3,2.6,0.3c1.7,0,2.3-0.7,2.8-2.5l0.5-1.7l-6.4-25.5h6.6l2.2,11.9
			c0.3,2.2,0.5,3.4,0.9,6.7h0.1c0.4-3.1,0.6-4.6,1-6.6l2.3-11.9h6.1l-7.2,27.9c-1.3,5-3.1,7.3-7.7,7.3
			C857.3,263.7,855.8,263.4,854.8,263z"/>
		<path d="M874.7,261.3c3.6-5.9,6.4-12.9,6.4-20.5c0-7.5-2.7-15.4-6.5-20.5l4.7-2.5c4.9,5.9,8.5,13.8,8.5,23c0,9.2-3.6,17-8.4,23
			L874.7,261.3z"/>
	</g>
</g>
<g id="Long_Term">
	<path id="Shape_2_" class="answerable_SVG" data-label="Long-Term Memory" fill="#84D0A5" d="M1401.8,298.1h-267.7c-36.7,0-66.4-29.7-66.4-66.4V195c0-36.7,29.7-66.4,66.4-66.4h267.7
		c36.7,0,66.4,29.7,66.4,66.4v36.7C1468.2,268.3,1438.5,298.1,1401.8,298.1z"/>
	<g>
		<path d="M1183.2,159h7v31.2h10.3v5.9h-17.3V159z"/>
		<path d="M1201.5,182.6c0-9.6,4.1-13.7,9.9-13.7c5.7,0,9.9,4.1,9.9,13.7c0,9.5-4.2,13.7-9.9,13.7
			C1205.6,196.3,1201.5,192.1,1201.5,182.6z M1214.4,182.6c0-5.9-0.7-8.4-3.1-8.4c-2.3,0-3.2,2.2-3.2,8.4c0,5.8,0.8,8.8,3.2,8.8
			C1213.6,191.3,1214.4,188.9,1214.4,182.6z"/>
		<path d="M1224,169.3h6.7v3.3c1.2-1.6,3.8-3.8,6.8-3.8c3.1,0,5.1,1.5,5.1,6.3V196h-6.7v-18.5c0-1.7-0.5-2.6-1.7-2.6
			c-1.2,0-2.6,1-3.5,1.8V196h-6.7V169.3z"/>
		<path d="M1265.6,168.7v6.2c-0.4,0-1.5,0.1-2.6,0.3c0.3,1,0.5,2.1,0.5,3.4c0,6.4-3.9,9.6-9,9.6c-1,0-1.8-0.1-2.7-0.3
			c-0.3,0.3-0.6,0.8-0.6,1.2c0,0.8,0.4,1.1,1.9,1.3l3.3,0.3c6.4,0.6,8.7,2.8,8.7,7.2c0,4.9-4.6,8.1-11.6,8.1c-6.2,0-9.2-2.2-9.2-5.8
			c0-2.4,1.3-4.4,3.7-5.5c-1.4-0.8-2.1-2-2.1-3.5c0-1.6,1.2-3.5,3-4.8c-2.1-1.7-3.3-4.4-3.3-7.8c0-6.2,3.9-9.7,9-9.7
			c2.6,0,4.8,0.9,6.4,2.5C1262.2,170,1264.2,169,1265.6,168.7z M1250.5,198.8c0,2.2,1.3,3.1,4.2,3.1c2.8,0,4.4-1.2,4.4-3.2
			c0-1.7-0.8-2.5-3.8-2.8l-3.4-0.4C1250.9,196.6,1250.5,197.7,1250.5,198.8z M1257.2,178.7c0-3.5-0.8-4.9-2.7-4.9
			c-1.8,0-2.6,1.5-2.6,4.9c0,3.3,0.8,5,2.6,5C1256.4,183.7,1257.2,182,1257.2,178.7z"/>
		<path d="M1267.1,177.7h11.2v5.8h-11.2V177.7z"/>
		<path d="M1283.4,165h-6.6v-6h20.3v6h-6.7v31h-7.1V165z"/>
		<path d="M1294.5,182.7c0-9.7,4.1-13.8,9.6-13.8c6.5,0,9.1,5.7,9.1,13.9v2.1h-12.3c0,3.9,1.2,6.4,3.5,6.4c2,0,3-1.6,3.8-4l5.1,1.8
			c-1.5,4.6-4.5,7.2-9,7.2C1298.4,196.4,1294.5,192.1,1294.5,182.7z M1307,180.6c-0.1-4.6-1-6.5-2.9-6.5c-1.8,0-3.1,1.6-3.2,6.5
			H1307z"/>
		<path d="M1316.1,169.3h6.7v4.3h0c1.1-2.4,3-4.7,6.1-4.7c0.2,0,0.6,0,0.6,0l-0.1,6.4c-0.2,0-0.8-0.1-1.1-0.1
			c-2.5,0-4.6,1.2-5.5,2.5V196h-6.7V169.3z"/>
		<path d="M1331.8,169.3h6.7v3.3c1.2-1.6,3.8-3.8,6.5-3.8c2.8,0,4.3,1.1,4.9,3.8c1.4-1.8,4-3.8,6.7-3.8c3.5,0,5.2,1.8,5.2,6.4V196
			h-6.7v-18.5c0-1.7-0.3-2.6-1.7-2.6c-1.1,0-2.2,0.9-3.2,1.8V196h-6.7v-18.5c0-1.7-0.3-2.6-1.6-2.6c-1.2,0-2.3,0.9-3.3,1.8V196h-6.7
			V169.3z"/>
		<path d="M1203,219h8.5l4.8,26.2h0.2l4.8-26.2h8.5v37h-6.3v-26.2h-0.2c-0.3,3.6-1,6.3-1.6,9.5l-3.2,16.7h-5.2l-3.2-17.2
			c-0.6-3-1.2-6.3-1.6-9h-0.1V256h-5.5V219z"/>
		<path d="M1233,242.7c0-9.7,4.1-13.8,9.6-13.8c6.5,0,9.1,5.7,9.1,13.9v2.1h-12.3c0,3.9,1.2,6.4,3.5,6.4c2,0,3-1.6,3.8-4l5.1,1.8
			c-1.5,4.6-4.5,7.2-9,7.2C1237,256.4,1233,252.1,1233,242.7z M1245.5,240.6c-0.1-4.6-1-6.5-2.9-6.5c-1.8,0-3.1,1.6-3.2,6.5H1245.5z
			"/>
		<path d="M1254.6,229.3h6.7v3.3c1.2-1.6,3.8-3.8,6.5-3.8c2.8,0,4.3,1.1,4.9,3.8c1.4-1.8,4-3.8,6.7-3.8c3.5,0,5.2,1.8,5.2,6.4V256
			h-6.7v-18.5c0-1.7-0.3-2.6-1.7-2.6c-1.1,0-2.2,0.9-3.2,1.8V256h-6.7v-18.5c0-1.7-0.3-2.6-1.6-2.6c-1.2,0-2.3,0.9-3.3,1.8V256h-6.7
			V229.3z"/>
		<path d="M1287.3,242.6c0-9.6,4.1-13.7,9.9-13.7c5.7,0,9.9,4.1,9.9,13.7c0,9.5-4.2,13.7-9.9,13.7
			C1291.4,256.3,1287.3,252.1,1287.3,242.6z M1300.2,242.6c0-5.9-0.7-8.4-3.1-8.4c-2.3,0-3.2,2.2-3.2,8.4c0,5.8,0.8,8.8,3.2,8.8
			C1299.4,251.3,1300.2,248.9,1300.2,242.6z"/>
		<path d="M1309.8,229.3h6.7v4.3h0c1.1-2.4,3-4.7,6.1-4.7c0.2,0,0.6,0,0.6,0l-0.1,6.4c-0.2,0-0.8-0.1-1.1-0.1
			c-2.5,0-4.6,1.2-5.5,2.5V256h-6.7V229.3z"/>
		<path d="M1323.7,265.4l1.2-5.4c0.6,0.2,1.5,0.4,2.7,0.4c1.8,0,2.4-0.8,2.9-2.7l0.5-1.8l-6.7-26.6h6.9l2.2,12.4
			c0.4,2.2,0.6,3.5,1,7h0.2c0.4-3.2,0.6-4.8,1-6.9l2.4-12.4h6.4l-7.6,29.1c-1.3,5.2-3.2,7.7-8.1,7.7
			C1326.3,266.1,1324.7,265.7,1323.7,265.4z"/>
	</g>
</g>
<path id="Curved_Arrow_Bottom" d="M934.6,351c26.4,16,56.7,23.3,87.8,21.2c38.3-2.6,73.7-19.5,99.8-47.6l3.1-3.4l-11.2-10l-3,3.2
	c-23.5,25.2-55.3,40.4-89.7,42.7c-27,1.8-53.4-4.3-76.6-17.6l6.7-7.5l-55.1-22.3l31.2,49L934.6,351z"/>
<g id="Curved_Arrow_Top">
	<path d="M966,65.9c-13.8-14.2-33.8-26.7-57.9-36.2C859.7,10.5,795.6,0,727.7,0c-68.1,0-132.1,10.5-180.4,29.6
		c-51,20.1-79.1,48.1-79.1,78.6c0,7.2,1.6,14.4,4.9,21.4l-10.3,11.3l65,31l-32.4-66.2l-9.8,9.5c-1.4-3.4-2.2-7.4-2.1-10
		c0.3-8,1.4-32.3,68.7-58.9c47-18.6,109.1-28.8,174.7-28.8c65.3,0,127,10.7,174.3,28.8c52.2,20,66.9,46.3,67.6,63.7
		c-0.3,24.3-39,56.5-39.4,56.8l25.1,0c0,0,31.9-32.8,31.9-55.7C986.3,95.8,979.8,80.1,966,65.9z"/>
</g>
<polygon id="Arrow_1" points="513.2,218.4 473.6,198.3 473.6,210.3 415.6,210.3 415.6,225.3 473.6,225.3 473.7,236.4 "/>
<polygon id="Arrow_2" points="1048.2,218.4 1008.6,198.3 1008.6,210.3 950.6,210.3 950.6,225.3 1008.6,225.3 1008.7,236.4 "/>
</svg>
