<?xml version="1.0" encoding="utf-8"?>
<!-- Generator: Adobe Illustrator 18.1.0, SVG Export Plug-In . SVG Version: 6.00 Build 0)  -->
<!DOCTYPE svg PUBLIC "-//W3C//DTD SVG 1.1//EN" "http://www.w3.org/Graphics/SVG/1.1/DTD/svg11.dtd">
<svg version="1.1" id="Layer_4" xmlns="http://www.w3.org/2000/svg" xmlns:xlink="http://www.w3.org/1999/xlink" x="0px" y="0px"
	 viewBox="0 0 962.3 827.8" enable-background="new 0 0 962.3 827.8" xml:space="preserve" width="600" height="400">
<g id="Ear">
	<path id="Ear_Outline_x5F_Background" fill="#BF9A7F" d="M235.7,6.1l124-1c0,0,8.4,183.7,15.7,211.4c7.2,27.7,48.2,97.6,112,87.9
		c63.8-9.6,55.4-36.1,72.3-37.3c16.9-1.2,48.2-1.2,62.6-9.6c14.5-8.4,45.8-44.6,63.8-45.8c18.1-1.2,43.4,2.4,56.6,22.9
		c13.2,20.5,61.4,59,101.2,62.6c39.7,3.6,116.8,2.4,116.8,2.4s-25,37.9-25,47.5c0,9.6,8.7,75.3,4.5,78.9
		c-9.7,8.4-98.8,75.9-104.8,80.7c-6,4.8-196.3,136.1-196.3,136.1s-322.2,208.4-336,116.8c-2.4-16-4.2,7.8-9,24.7
		c-4.8,16.9-19.3,63.8-79.5,26.5c-40.8-25.3-89.7-68.6-113.8-124.1c-24.7-59.5-45-123.9-50.4-162.9c-6.1-43.6-18.2-146-18.2-146
		S-5.2,283.9,9.2,213.5C22.1,150.8,54.4,85.2,122.4,77.4c36.2-4.2,64.7,11.9,87.9,28.3c20.5,14.5,35.8,41.1,47.9,59.9
		c1.8,2.8,6,0.9,5.2-2.3C254,126.2,235.7,6.1,235.7,6.1z"/>
	<path id="Nerve_Bundle" fill="#E2E22B" d="M775.7,325.8l164-18l-8,17.3l-14.8,4.9c-24.6,8.2-47.7,20.3-68.5,35.9l-6,4.5
		L775.7,325.8z"/>
	<path id="Ear_Blue" fill="#3FCAEA" d="M263.6,188.3c2.2,3.3-0.7,7.6-4.5,6.8c-11-2.5-26.6-4-31.9,5.8c-8.4,15.7-16.9,56.6-4.8,75.9
		c12,19.3,24.1,47,25.3,60.2c1.2,13.2-4.8,15.7,8.4,21.7c13.2,6,28.9,2.4,30.1,14.5c1.2,12,48.2,69.9,95.1,56.6s131.5-38.8,152-42.4
		c20.5-3.6,5.5,90.9-13.8,92.1c-19.3,1.2-108.1,17.8-139.4,44.3c-31.3,26.5-45.3,38.7-66.2,42.2c-22.8,3.8-67.3,14.3-83,20.9
		c-5,2.1-19,10.8-20.6,23.6c-0.6,4.9,19.1,69.1,20.5,84.3c2.4,25.9-4.8,62.6-4.8,66.2c0,1.8,3.7,15.2,7.4,27.9
		c2.7,9.5-7.4,17.6-16.1,12.7c-30.1-17-82.3-54.1-111.9-119.1c-40.6-89-50.5-177.8-55.9-213c-4.8-31.9-10.2-83.1-10.2-87.9
		c0-4.8-21.7-67.4-24.1-120.4s19.8-117.2,45.5-145c19.7-21.4,55.6-50.4,120.6-20.3s76,83.4,76,83.4L263.6,188.3z"/>
	<g id="Cohchlea">
		<path fill="#C14925" class="answerable_SVG" data-label="Cochlea" d="M814.1,335.3c-20.5-11.3-42.4-15.8-66.2-11.2c-15.8,3.1-29.4,13.6-44.4,35.2c-4.6,6.6-8.6,18.7-10.9,26.5
			c0.3,1.4,0.6,3,0.9,4.7c3.3,17.8,9.5,51,30.5,64.8c10.3,6.7,23.3,8.3,38.9,4.8c14.2-3.3,24.5-12.8,26.9-25c0.7-3.6,3.8-22-5.4-35
			c-5.2-7.4-13.2-12.6-24.7-14.2c-10.8-1.5-19.5,0.9-24.7,5.9c-6.2,5.9-7.2,15.3-6.9,20c0.7,8.6,6,16.2,12.3,17.7
			c10.5,2.5,18.4,0,21-6.7c1.1-2.7,0.9-5.5,0.1-7.3c-0.6-1.3-0.7-2.8,0-4.1l0.4-0.7c1.7-3.2,6.4-3.3,8-0.1
			c2.3,4.4,2.7,10.2,0.5,15.7c-3.5,9-13.8,17.1-32.3,12.6c-10.4-2.5-18.7-13.6-19.7-26.4c-0.6-7.9,1.6-20,9.9-27.8
			c7.5-7.1,18.3-9.7,32.2-7.8c14.3,2,25,7.8,31.9,17.5c11.2,15.8,8.2,36.5,7,42.5c-3.2,15.9-16.3,28.4-34.2,32.5
			c-6.1,1.4-12,2.1-17.5,2.1c-10.9,0-20.6-2.7-28.9-8.2c-24.2-15.9-31-51.1-34.6-70.5c-8.4-0.2-22.6,0.4-28.4,6.7
			c-6.3,6.8-11.3,16.1-8.9,37.2c2.6,22.1,40.5,71.6,105.1,68.2c49-2.6,67.5-22.9,76.2-35.1c10.8-15.1,20.5-32.2,21.5-60.6
			C850.8,376,839.1,349.1,814.1,335.3z"/>
		<path fill="#D36B53" d="M718.8,463.6c8.3,5.5,18,8.2,28.9,8.2c5.5,0,11.3-0.7,17.5-2.1c17.9-4.1,31-16.6,34.2-32.5
			c1.2-6,4.2-26.7-7-42.5c-6.9-9.6-17.6-15.5-31.9-17.5c-13.9-1.9-24.7,0.7-32.2,7.8c-8.3,7.9-10.5,19.9-9.9,27.8
			c1,12.8,9.3,23.9,19.7,26.4c18.5,4.5,28.8-3.6,32.3-12.6c2.1-5.5,1.8-11.3-0.5-15.7c-1.7-3.2-6.3-3.1-8,0.1l-0.4,0.7
			c-0.7,1.3-0.6,2.8,0,4.1c0.8,1.8,0.9,4.6-0.1,7.3c-2.6,6.7-10.4,9.2-21,6.7c-6.3-1.5-11.6-9.2-12.3-17.7c-0.4-4.7,0.6-14.1,6.9-20
			c5.2-5,13.9-7.4,24.7-5.9c11.5,1.6,19.5,6.8,24.7,14.2c9.2,12.9,6.1,31.4,5.4,35c-2.4,12.1-12.7,21.7-26.9,25
			c-15.5,3.6-28.6,2-38.9-4.8c-21.1-13.8-27.2-47-30.5-64.8c-0.3-1.7-0.6-3.2-0.9-4.7c-1.3,4.4-2,7.5-2,7.5s-2.6-0.3-6.5-0.4
			C687.8,412.5,694.6,447.7,718.8,463.6z"/>
		<path fill="#C14925" d="M725.7,334c-20.2-3.3-40.4-11.8-50.8-30.5c-9.1-16.4-6.4-40.6,12.3-49.2c19.2-8.8,39.9,4.8,47.8,22.3
			c9.5,21,4,44.8-4.6,65c-2.7,6.3,6.6,11.9,9.4,5.5c10.5-24.9,16.5-53.3,3.4-78.5c-10.8-20.8-36.2-34.1-59-24.7
			c-22.3,9.2-30.2,36.3-22,57.7c9.7,25.4,35.1,38.6,60.6,42.8C729.7,345.6,732.6,335.1,725.7,334L725.7,334z"/>
		<path fill="#C14925" d="M701.2,373.5c-20-8.9-41.3-18.2-55.3-35.8c-12.6-15.7-20.8-48.8,5-56.7c21-6.4,38.5,10.4,46.9,27.8
			c10,20.5,11.7,44,19.9,65.2c2.5,6.4,13,3.6,10.5-2.9c-10.4-26.7-11.2-57.5-29.1-81c-12.9-17-36.2-27.2-56.7-17.3
			c-22.6,11-22.7,40-12.7,59.8c13.2,26,40.8,39.1,66.1,50.4C702,385.7,707.5,376.4,701.2,373.5L701.2,373.5z"/>
	</g>
	<path fill="#B4C136" d="M625,410.4c-8.2-11.9-11.8-26.4-11.4-40.8c0.1-4.9-0.5-9.9-3.4-11.6c-6.3-3.6-15.7,0.9-20.9,10.1
		c-5.2,9.2-4.3,19.5,2,23.1c2.4,1.3,5.1,1.6,7.9,0.8c3.5-0.9,7.1,0.8,8.2,4.3c3.7,11.4,11.8,33.2,21.8,41.1l7.8-14
		C632.2,419.7,628.2,415.1,625,410.4z"/>
	<path id="Ossicles" fill="#C4D84E" class="answerable_SVG" data-label="Ossicles" d="M580.4,349.2c-7.6-1.4-15.5,1.6-19.8,8c-7.1,10.5-7.3,24.9,8,30.3c0.1,0,0.2,0.3,0.2,0.9
		c-12,6.8-27.2-0.8-27.2-0.8s-42.5,89.3-31.3,91.9c36.1,8.4,83.3-91.9,85.5-101.4C599.6,362.7,594.4,351.8,580.4,349.2z"/>
	<path id="Ear_Drum" class="answerable_SVG" data-label="Eardrum" fill="#97A328" d="M555,433.4c-7.1,26-26.1,47.1-42.5,47.1c-16.4,0-23.6-21.1-16.1-47.1
		c7.5-26,26.5-47.1,42.5-47.1C554.8,386.3,562.1,407.4,555,433.4z"/>
	<path id="Inner_Ear_Detail" fill="#189CB2" d="M126.2,183.7c3.4-9.1,13.9-13.3,22.6-9.1c6.3,3,12.9,7,16.7,11.5
		c9,10.8,19.6,28.6,3,53.6c-14.4,21.7-48.8,87.9-9.3,90c23.5,1.3,70.8,0.9,76.2,4.2c4.4,2.7,5.2,9.4,7.5,19.6
		c1.9,8.1-5,15.6-13.3,14.5c-13.6-2-32.5-3.3-46,1.4c-23.5,8.1-46.1,26.6-56.5,39.7c-5.6,7.1-24.5,54.2-8,89.4
		c20.2,43,38.5,53.3,66.5,61.4s46.4,19,36.4,23.2c-3.2,1.4-7.9,6.2-11.4,10.8c-11.2,14.5-27.8,17.5-44.8,10.6
		c-2.9-1.2-5.7-2.5-8.5-4c-19.9-10.8-60.2-45.2-75.6-93.9C66.4,458,64.3,381.2,75.2,335.1C83.6,299.2,113.4,217.9,126.2,183.7z"/>
	<path id="Oval_Window" class="answerable_SVG" data-label="Oval Window" fill="#9FA51C" d="M691.1,450.6l-2-19.2c-0.3-3.2-2.6-5.8-5.7-6.5c-4.1-0.9-10.1-1.1-15.6,2.7
		c-0.4,0.3-0.7,0.5-1.1,0.8c-2.9,2.5-8,4.1-11.7,3.3c-7-1.4-12.9-4.5-17.9-8.4l-7.8,14c6.2,4.9,13.6,8.3,22,9.5
		c4.8,0.7,10.9,4.4,13.9,8.2c1.2,1.5,2.7,2.9,4.5,3.9c3.9,2.4,8.8,2.6,13,2.1C687.9,460.6,691.6,455.8,691.1,450.6z M675.1,454.2
		c-0.7-0.2-1.3-0.5-2-0.9c-5.8-3.5-6.9-12.2-3.9-17.4c0.7-1.2,1.5-2.1,2.5-2.8c0,0,0.1,0,0.1-0.1c4.5-3.1,10.8,0.1,11.3,5.6l0.9,8.3
		C684.5,451.8,679.8,455.8,675.1,454.2z"/>
</g>
<rect id="Highlight_Area" x="792" y="148.8" fill="white" width="109.7" height="37"/>
<rect id="Highlight_Area_1_" x="472" y="156.8" fill="white" width="101.7" height="37"/>
<rect id="Highlight_Area_2_" x="677" y="660.8" fill="white" width="143.9" height="37"/>
<rect id="Highlight_Area_3_" x="320.4" y="354.8" fill="white" width="106.1" height="34.6"/>
<g id="Oval_Window_1_">
	<path d="M686.2,679.5c0-5.1,3-8.3,6.9-8.3s6.9,3.2,6.9,8.3s-2.9,8.3-6.9,8.3S686.2,684.6,686.2,679.5z M698.1,679.5
		c0-4.2-2.1-6.6-5-6.6c-2.9,0-5,2.4-5,6.6c0,4.2,2.1,6.6,5,6.6C696,686,698.1,683.6,698.1,679.5z"/>
	<path d="M705.6,687.5l-4.2-11.4h2l3.2,9.2h0l3.2-9.2h1.9l-4.2,11.4H705.6z"/>
	<path d="M712.6,684.8c0-2.3,2-4,7.6-4.8v-0.5c0-1.4-0.8-2.1-2.2-2.1c-1.7,0-3,0.8-4.1,1.7l-1-1.2c1.3-1.2,3-2.1,5.3-2.1
		c2.7,0,3.8,1.4,3.8,3.8v5c0,1.4,0.1,2.2,0.3,2.8h-1.9c-0.2-0.5-0.3-0.9-0.3-1.6c-1.3,1.2-2.7,1.7-4.4,1.7
		C713.9,687.6,712.6,686.6,712.6,684.8z M720.3,684.5v-3.2c-4.3,0.7-5.8,1.7-5.8,3.2c0,1.1,0.7,1.7,1.9,1.7
		C717.9,686.2,719.2,685.5,720.3,684.5z"/>
	<path d="M725.4,687.5v-16h1.9v16H725.4z"/>
	<path d="M738.5,687.5l-4.3-16h1.9l2.4,9.3c0.4,1.4,0.7,2.8,0.9,3.9h0c0.2-1.1,0.5-2.5,0.9-3.9l2.2-9.3h1.9l2.3,9.3
		c0.3,1.4,0.7,2.6,0.9,3.8h0c0.3-1.3,0.5-2.4,0.9-3.8l2.3-9.4h1.8l-4.2,16h-1.7l-3.2-13.4h0l-3.3,13.4H738.5z"/>
	<path d="M755,673.6v-1.8h1.9v1.8H755z M755.1,687.5v-11.4h1.9v11.4H755.1z"/>
	<path d="M760.4,687.5v-11.4h1.9v1.7c1-1,2.4-1.9,4.3-1.9c2.2,0,3.4,1.3,3.4,3.4v8.2H768v-7.8c0-1.5-0.6-2.2-2.1-2.2
		c-1.4,0-2.5,0.7-3.7,1.8v8.2H760.4z"/>
	<path d="M772.4,681.8c0-4,2.1-6,4.9-6c1.4,0,2.7,0.7,3.5,1.7v-6h1.9v13.2c0,1.4,0.1,2.2,0.3,2.8h-1.9c-0.1-0.4-0.3-1-0.3-1.6
		c-0.9,1-2.1,1.8-3.8,1.8C774.4,687.6,772.4,685.7,772.4,681.8z M780.8,684.3v-5.2c-1-1.1-2.1-1.7-3.3-1.7c-2,0-3.3,1.4-3.3,4.4
		c0,2.9,1.4,4.3,3.2,4.3C778.8,686.1,779.9,685.4,780.8,684.3z"/>
	<path d="M785.3,681.8c0-3.9,2.5-5.9,5.3-5.9c2.8,0,5.3,2,5.3,5.9c0,3.9-2.5,5.9-5.3,5.9S785.3,685.7,785.3,681.8z M794.1,681.8
		c0-2.4-1.1-4.3-3.4-4.3c-2.2,0-3.4,1.8-3.4,4.3c0,2.4,1.1,4.4,3.4,4.4C792.8,686.1,794.1,684.4,794.1,681.8z"/>
	<path d="M800.6,687.5l-3.5-11.4h1.9l1.5,5.4c0.4,1.4,0.6,2.3,1,3.8h0c0.4-1.6,0.6-2.4,1-3.8l1.4-5.3h1.6l1.5,5.4
		c0.4,1.4,0.6,2.2,1,3.7h0c0.4-1.5,0.6-2.3,1-3.7l1.6-5.5h1.7l-3.5,11.4h-1.7l-2.4-8.9h0l-2.4,8.9H800.6z"/>
</g>
<g id="Ossicles_1_">
	<path d="M483.2,175.5c0-5.1,3-8.3,6.9-8.3s6.9,3.2,6.9,8.3s-2.9,8.3-6.9,8.3S483.2,180.6,483.2,175.5z M495.1,175.5
		c0-4.2-2.1-6.6-5-6.6c-2.9,0-5,2.4-5,6.6c0,4.2,2.1,6.6,5,6.6C493,182,495.1,179.6,495.1,175.5z"/>
	<path d="M498.8,181.7l1.1-1.1c0.9,0.9,2,1.6,3.6,1.6c1.8,0,2.7-0.6,2.7-1.8c0-1.1-1-1.6-2.9-2c-2.4-0.6-4.1-1.2-4.1-3.4
		c0-1.7,1.5-3.1,4-3.1c2,0,3.3,0.6,4.4,1.6l-1,1.2c-0.9-0.8-2-1.4-3.3-1.4c-1.7,0-2.3,0.7-2.3,1.5c0,1.1,0.9,1.4,2.7,1.9
		c2.6,0.6,4.3,1.3,4.3,3.6c0,2.2-2,3.3-4.6,3.3C501.4,183.7,499.7,182.8,498.8,181.7z"/>
	<path d="M509.6,181.7l1.1-1.1c0.9,0.9,2,1.6,3.6,1.6c1.8,0,2.7-0.6,2.7-1.8c0-1.1-1-1.6-2.9-2c-2.4-0.6-4.1-1.2-4.1-3.4
		c0-1.7,1.5-3.1,4-3.1c2,0,3.3,0.6,4.4,1.6l-1,1.2c-0.9-0.8-2-1.4-3.3-1.4c-1.7,0-2.3,0.7-2.3,1.5c0,1.1,0.9,1.4,2.7,1.9
		c2.6,0.6,4.3,1.3,4.3,3.6c0,2.2-2,3.3-4.6,3.3C512.2,183.7,510.5,182.8,509.6,181.7z"/>
	<path d="M521.6,169.6v-1.8h1.9v1.8H521.6z M521.6,183.5v-11.4h1.9v11.4H521.6z"/>
	<path d="M526.2,177.8c0-4.2,2.7-5.9,5.2-5.9c2.6,0,3.8,1.5,4.5,3.2l-1.6,0.6c-0.6-1.5-1.4-2.3-2.9-2.3c-1.6,0-3.3,1.1-3.3,4.4
		c0,2.8,1.3,4.4,3.3,4.4c1.4,0,2.3-0.6,3.1-2.3l1.5,0.6c-0.9,1.9-2.2,3.2-4.7,3.2C528.7,183.7,526.2,181.7,526.2,177.8z"/>
	<path d="M538.6,183.5v-16h1.9v16H538.6z"/>
	<path d="M543.2,177.8c0-4.1,2.8-5.9,5.2-5.9c2.7,0,4.8,1.9,4.8,6v0.4h-8.1c0.1,2.6,1.6,4,3.4,4c1.6,0,2.6-0.7,3.4-1.9l1.1,1
		c-1.1,1.5-2.5,2.4-4.6,2.4C545.7,183.7,543.2,181.7,543.2,177.8z M551.3,176.8c-0.2-2-1.1-3.4-3-3.4c-1.5,0-3,1.1-3.2,3.4H551.3z"
		/>
	<path d="M554.7,181.7l1.1-1.1c0.9,0.9,2,1.6,3.6,1.6c1.8,0,2.7-0.6,2.7-1.8c0-1.1-1-1.6-2.9-2c-2.4-0.6-4.1-1.2-4.1-3.4
		c0-1.7,1.5-3.1,4-3.1c2,0,3.3,0.6,4.4,1.6l-1,1.2c-0.9-0.8-2-1.4-3.3-1.4c-1.7,0-2.3,0.7-2.3,1.5c0,1.1,0.9,1.4,2.7,1.9
		c2.6,0.6,4.3,1.3,4.3,3.6c0,2.2-2,3.3-4.6,3.3C557.4,183.7,555.7,182.8,554.7,181.7z"/>
</g>
<g id="Cochlea">
	<path d="M806.3,167.4c0-5.2,2.9-8.6,7.1-8.6c3.6,0,5.4,2.1,6.2,5.1l-1.9,0.5c-0.7-2.5-1.9-3.8-4.3-3.8c-3.1,0-5.1,2.6-5.1,6.8
		c0,4.4,2,7,5.1,7c2.4,0,3.8-1.3,4.5-4.1l1.9,0.4c-0.8,3.3-2.9,5.4-6.4,5.4C809.2,176.2,806.3,172.9,806.3,167.4z"/>
	<path d="M821.9,169.9c0-4.1,2.6-6.2,5.6-6.2c2.9,0,5.5,2.1,5.5,6.2c0,4.1-2.6,6.2-5.5,6.2C824.5,176.1,821.9,174,821.9,169.9z
		 M831,169.9c0-2.5-1.2-4.5-3.6-4.5c-2.3,0-3.6,1.9-3.6,4.5c0,2.5,1.2,4.6,3.6,4.6C829.7,174.5,831,172.6,831,169.9z"/>
	<path d="M835.1,169.9c0-4.4,2.8-6.2,5.5-6.2c2.7,0,4,1.6,4.7,3.3l-1.7,0.7c-0.6-1.5-1.5-2.4-3.1-2.4c-1.7,0-3.5,1.2-3.5,4.6
		c0,2.9,1.4,4.6,3.4,4.6c1.5,0,2.4-0.7,3.2-2.4l1.6,0.6c-0.9,2-2.3,3.4-4.9,3.4C837.6,176.1,835.1,174,835.1,169.9z"/>
	<path d="M847.9,175.9v-16.7h2v6.6c1-1,2.5-2,4.5-2c2.3,0,3.5,1.3,3.5,3.6v8.6h-1.9v-8.2c0-1.6-0.7-2.3-2.2-2.3
		c-1.4,0-2.6,0.7-3.9,1.9v8.6H847.9z"/>
	<path d="M861.3,175.9v-16.7h1.9v16.7H861.3z"/>
	<path d="M866.2,169.9c0-4.3,2.9-6.2,5.4-6.2c2.8,0,5,2,5,6.3v0.4h-8.4c0.1,2.7,1.6,4.1,3.6,4.1c1.7,0,2.7-0.7,3.6-1.9l1.1,1
		c-1.1,1.6-2.6,2.5-4.9,2.5C868.7,176.1,866.2,174.1,866.2,169.9z M874.7,168.9c-0.2-2.1-1.2-3.6-3.1-3.6c-1.6,0-3.1,1.1-3.4,3.6
		H874.7z"/>
	<path d="M878.4,173c0-2.4,2.1-4.1,8-5v-0.5c0-1.5-0.8-2.2-2.3-2.2c-1.8,0-3.1,0.8-4.3,1.8l-1-1.2c1.4-1.3,3.2-2.2,5.5-2.2
		c2.9,0,4,1.5,4,4v5.3c0,1.4,0.1,2.3,0.3,2.9h-2c-0.2-0.5-0.3-1-0.3-1.7c-1.3,1.2-2.8,1.8-4.6,1.8C879.7,176.1,878.4,175,878.4,173z
		 M886.4,172.8v-3.3c-4.5,0.7-6.1,1.8-6.1,3.3c0,1.2,0.8,1.8,2,1.8C883.9,174.5,885.3,173.9,886.4,172.8z"/>
</g>
<g id="Eardrum">
	<path d="M330.6,380v-16.1h9.9v1.8h-8v5h5.9v1.7h-5.9v5.9h8.4v1.7H330.6z"/>
	<path d="M342.7,377.3c0-2.3,2-4,7.7-4.8v-0.5c0-1.4-0.8-2.1-2.2-2.1c-1.7,0-3,0.8-4.2,1.7l-1-1.2c1.3-1.2,3.1-2.1,5.3-2.1
		c2.7,0,3.8,1.4,3.8,3.8v5.1c0,1.4,0.1,2.2,0.3,2.8h-1.9c-0.2-0.5-0.3-0.9-0.3-1.6c-1.3,1.2-2.7,1.8-4.5,1.8
		C343.9,380.2,342.7,379.1,342.7,377.3z M350.4,377v-3.2c-4.4,0.7-5.8,1.8-5.8,3.2c0,1.1,0.7,1.7,1.9,1.7
		C348,378.7,349.3,378,350.4,377z"/>
	<path d="M355.5,380v-11.5h1.9v2.1h0c0.9-1.3,2.2-2.4,4.5-2.4h0.2l-0.1,1.7c-0.1,0-0.5,0-0.5,0c-1.8,0-3.2,1-4.1,2.6v7.4H355.5z"/>
	<path d="M362.9,374.2c0-4,2.1-6,4.9-6c1.4,0,2.7,0.7,3.6,1.7v-6.1h1.9v13.3c0,1.4,0.1,2.2,0.3,2.8h-2c-0.1-0.4-0.3-1-0.3-1.6
		c-0.9,1-2.1,1.8-3.8,1.8C365,380.2,362.9,378.3,362.9,374.2z M371.4,376.8v-5.3c-1-1.1-2.1-1.7-3.3-1.7c-2,0-3.3,1.4-3.3,4.5
		c0,2.9,1.4,4.3,3.3,4.3C369.4,378.6,370.5,377.9,371.4,376.8z"/>
	<path d="M376.7,380v-11.5h1.9v2.1h0c0.9-1.3,2.2-2.4,4.5-2.4h0.2l-0.1,1.7c-0.1,0-0.5,0-0.5,0c-1.8,0-3.2,1-4.1,2.6v7.4H376.7z"/>
	<path d="M385.3,376.8v-8.3h1.9v7.9c0,1.5,0.7,2.2,2.1,2.2c1.4,0,2.5-0.7,3.7-1.9v-8.3h1.9V380H393v-1.7c-1,1-2.4,1.9-4.3,1.9
		C386.5,380.2,385.3,379,385.3,376.8z"/>
	<path d="M398.2,380v-11.5h1.9v1.7c1.1-1.1,2.4-2,4.1-2c1.9,0,2.8,0.8,3.2,2c1.1-1.1,2.5-2,4.3-2c2.4,0,3.3,1.4,3.3,3.4v8.3h-1.9
		v-7.9c0-1.5-0.5-2.2-2-2.2c-1.3,0-2.4,0.7-3.6,1.9v8.3h-1.9v-7.9c0-1.5-0.5-2.2-2-2.2c-1.3,0-2.4,0.7-3.6,1.9v8.3H398.2z"/>
</g>
<g id="Arrow">
	<g>
		<path d="M542.7,395.4c0,8-6.5,14.5-14.5,14.5s-14.5-6.5-14.5-14.5c0-8,6.5-14.5,14.5-14.5S542.7,387.3,542.7,395.4z M515.3,395.4
			c0,7.1,5.8,12.9,12.9,12.9c7.1,0,12.9-5.8,12.9-12.9c0-7.1-5.8-12.9-12.9-12.9C521.1,382.4,515.3,388.2,515.3,395.4z"/>
	</g>
	<g>
		<rect x="328" y="393.8" width="187" height="2"/>
	</g>
</g>
<g id="Arrow_1_">
	<g>
		<path d="M577.4,382.7c-8,0-14.5-6.5-14.5-14.5s6.5-14.5,14.5-14.5s14.5,6.5,14.5,14.5S585.4,382.7,577.4,382.7z M577.4,355.3
			c-7.1,0-12.9,5.8-12.9,12.9c0,7.1,5.8,12.9,12.9,12.9c7.1,0,12.9-5.8,12.9-12.9C590.3,361.1,584.5,355.3,577.4,355.3z"/>
	</g>
	<g>
		<rect x="577" y="167.8" width="2" height="187"/>
	</g>
</g>
<g id="Arrow_2_">
	<g>
		<path d="M666.4,443.8c8,0,14.5,6.5,14.5,14.5c0,8-6.5,14.5-14.5,14.5s-14.5-6.5-14.5-14.5C651.8,450.3,658.4,443.8,666.4,443.8z
			 M666.4,471.2c7.1,0,12.9-5.8,12.9-12.9c0-7.1-5.8-12.9-12.9-12.9c-7.1,0-12.9,5.8-12.9,12.9C653.5,465.4,659.2,471.2,666.4,471.2
			z"/>
	</g>
	<g>
		<rect x="665" y="471.8" width="2" height="227"/>
	</g>
</g>
<g id="Arrow_3_">
	<g>
		<path d="M786.4,371.8c-8,0-14.5-6.5-14.5-14.5s6.5-14.5,14.5-14.5s14.5,6.5,14.5,14.5S794.4,371.8,786.4,371.8z M786.4,344.3
			c-7.1,0-12.9,5.8-12.9,12.9c0,7.1,5.8,12.9,12.9,12.9c7.1,0,12.9-5.8,12.9-12.9C799.3,350.1,793.5,344.3,786.4,344.3z"/>
	</g>
	<g>
		<rect x="786" y="156.8" width="2" height="187"/>
	</g>
</g>
</svg>
